<svg xmlns="http://www.w3.org/2000/svg" xmlns:xlink="http://www.w3.org/1999/xlink" width="500" zoomAndPan="magnify" viewBox="0 0 375 374.999991" height="500" preserveAspectRatio="xMidYMid meet" version="1.0"><defs><clipPath id="ef0f6d84f5"><path d="M 133 112.5 L 255.75 112.5 L 255.75 262.5 L 133 262.5 Z M 133 112.5 " clip-rule="nonzero"/></clipPath><clipPath id="fa7b4a6b34"><path d="M 119.25 209 L 179 209 L 179 239 L 119.25 239 Z M 119.25 209 " clip-rule="nonzero"/></clipPath></defs><g clip-path="url(#ef0f6d84f5)"><path fill="#ffffff" d="M 215.078125 262.460938 C 214.726562 262.460938 214.375 262.425781 214.03125 262.359375 C 213.683594 262.289062 213.347656 262.1875 213.019531 262.050781 C 212.695312 261.917969 212.386719 261.75 212.089844 261.554688 C 211.796875 261.359375 211.527344 261.136719 211.277344 260.886719 C 211.027344 260.636719 210.804688 260.367188 210.609375 260.070312 C 210.410156 259.777344 210.246094 259.46875 210.109375 259.140625 C 209.976562 258.816406 209.875 258.480469 209.804688 258.132812 C 209.734375 257.785156 209.703125 257.4375 209.703125 257.082031 L 209.703125 229.261719 C 209.703125 229.0625 209.710938 228.863281 209.734375 228.664062 C 209.941406 226.855469 209.96875 225.039062 209.816406 223.222656 C 209.667969 221.40625 209.339844 219.621094 208.839844 217.867188 C 208.339844 216.113281 207.671875 214.425781 206.839844 212.804688 C 206.007812 211.183594 205.023438 209.65625 203.894531 208.226562 C 203.582031 207.832031 203.328125 207.398438 203.136719 206.929688 C 202.945312 206.464844 202.824219 205.980469 202.769531 205.476562 C 202.714844 204.976562 202.730469 204.476562 202.816406 203.976562 C 202.90625 203.480469 203.058594 203.003906 203.277344 202.550781 C 203.5 202.09375 203.777344 201.679688 204.117188 201.304688 C 204.453125 200.929688 204.835938 200.605469 205.265625 200.339844 C 205.691406 200.070312 206.148438 199.867188 206.632812 199.730469 C 207.121094 199.589844 207.613281 199.519531 208.121094 199.519531 C 225.75 199.519531 244.488281 187.996094 244.488281 166.632812 C 244.488281 166.515625 244.488281 166.402344 244.488281 166.289062 C 244.726562 162.570312 244.332031 158.921875 243.3125 155.339844 C 242.289062 151.757812 240.695312 148.449219 238.535156 145.414062 C 238.078125 144.777344 237.777344 144.074219 237.628906 143.304688 C 237.480469 142.535156 237.5 141.769531 237.683594 141.011719 C 238.988281 135.613281 239.308594 130.15625 238.648438 124.644531 C 235.667969 125.871094 231.191406 128.210938 225.246094 132.675781 C 224.640625 133.125 223.96875 133.4375 223.234375 133.609375 C 222.5 133.777344 221.757812 133.792969 221.015625 133.652344 C 212.152344 131.96875 203.210938 131.125 194.1875 131.125 C 185.164062 131.125 176.222656 131.96875 167.359375 133.652344 C 166.617188 133.792969 165.878906 133.777344 165.140625 133.609375 C 164.40625 133.4375 163.734375 133.125 163.132812 132.675781 C 157.152344 128.152344 152.65625 125.828125 149.675781 124.613281 C 148.960938 130.117188 149.304688 135.554688 150.707031 140.925781 C 150.910156 141.699219 150.9375 142.476562 150.789062 143.261719 C 150.644531 144.046875 150.339844 144.765625 149.875 145.414062 C 147.707031 148.445312 146.109375 151.75 145.085938 155.332031 C 144.0625 158.914062 143.671875 162.566406 143.910156 166.28125 C 143.910156 166.402344 143.910156 166.519531 143.910156 166.636719 C 143.910156 188 162.648438 199.527344 180.277344 199.527344 C 180.785156 199.523438 181.28125 199.59375 181.765625 199.734375 C 182.253906 199.875 182.710938 200.078125 183.140625 200.347656 C 183.566406 200.617188 183.953125 200.941406 184.289062 201.316406 C 184.625 201.695312 184.90625 202.109375 185.125 202.566406 C 185.34375 203.023438 185.496094 203.5 185.582031 204 C 185.667969 204.5 185.683594 205 185.625 205.503906 C 185.570312 206.003906 185.445312 206.492188 185.25 206.957031 C 185.058594 207.425781 184.804688 207.859375 184.488281 208.253906 C 182.191406 211.117188 180.542969 214.316406 179.539062 217.847656 C 178.535156 221.394531 178.242188 224.996094 178.664062 228.65625 C 178.691406 228.855469 178.703125 229.054688 178.703125 229.257812 L 178.703125 257.082031 C 178.703125 257.4375 178.667969 257.785156 178.597656 258.132812 C 178.527344 258.480469 178.425781 258.816406 178.292969 259.140625 C 178.15625 259.46875 177.992188 259.777344 177.792969 260.070312 C 177.597656 260.367188 177.375 260.636719 177.125 260.886719 C 176.875 261.136719 176.605469 261.359375 176.3125 261.554688 C 176.015625 261.75 175.707031 261.917969 175.382812 262.050781 C 175.054688 262.1875 174.71875 262.289062 174.371094 262.359375 C 174.027344 262.425781 173.675781 262.460938 173.324219 262.460938 C 172.96875 262.460938 172.621094 262.425781 172.273438 262.359375 C 171.925781 262.289062 171.589844 262.1875 171.265625 262.050781 C 170.9375 261.917969 170.628906 261.75 170.335938 261.554688 C 170.042969 261.359375 169.769531 261.136719 169.519531 260.886719 C 169.269531 260.636719 169.046875 260.367188 168.851562 260.070312 C 168.65625 259.777344 168.488281 259.46875 168.355469 259.140625 C 168.21875 258.816406 168.117188 258.480469 168.046875 258.132812 C 167.980469 257.785156 167.945312 257.4375 167.945312 257.082031 L 167.945312 229.546875 C 167.414062 224.589844 167.832031 219.714844 169.191406 214.917969 C 169.71875 213.054688 170.382812 211.242188 171.1875 209.480469 C 166.957031 208.765625 162.890625 207.519531 158.984375 205.75 C 155.078125 203.980469 151.460938 201.738281 148.136719 199.03125 C 138.53125 191.015625 133.234375 179.582031 133.164062 166.808594 C 132.894531 162.308594 133.320312 157.875 134.441406 153.503906 C 135.5625 149.136719 137.324219 145.046875 139.730469 141.230469 C 138.867188 137.15625 138.484375 133.035156 138.578125 128.871094 C 138.675781 124.707031 139.246094 120.609375 140.296875 116.578125 C 140.445312 116 140.683594 115.464844 141.011719 114.96875 C 141.339844 114.472656 141.738281 114.039062 142.210938 113.675781 C 142.683594 113.3125 143.199219 113.035156 143.761719 112.84375 C 144.328125 112.648438 144.90625 112.554688 145.5 112.554688 C 146.898438 112.554688 154.289062 113.058594 167.6875 122.664062 C 176.460938 121.132812 185.296875 120.367188 194.203125 120.367188 C 203.109375 120.367188 211.949219 121.132812 220.722656 122.664062 C 234.117188 113.058594 241.515625 112.554688 242.90625 112.554688 C 243.507812 112.554688 244.09375 112.652344 244.664062 112.847656 C 245.234375 113.046875 245.757812 113.328125 246.230469 113.703125 C 246.703125 114.074219 247.105469 114.511719 247.429688 115.019531 C 247.757812 115.527344 247.992188 116.074219 248.132812 116.65625 C 249.113281 120.679688 249.644531 124.757812 249.738281 128.894531 C 249.828125 133.035156 249.472656 137.132812 248.671875 141.191406 C 251.082031 145.015625 252.847656 149.109375 253.972656 153.484375 C 255.097656 157.859375 255.527344 162.300781 255.261719 166.808594 C 255.210938 179.578125 249.882812 191.011719 240.28125 199.03125 C 236.953125 201.742188 233.332031 203.984375 229.417969 205.753906 C 225.507812 207.527344 221.433594 208.769531 217.199219 209.484375 C 218.632812 212.621094 219.625 215.890625 220.179688 219.292969 C 220.738281 222.695312 220.835938 226.113281 220.472656 229.542969 L 220.472656 257.082031 C 220.472656 257.4375 220.441406 257.789062 220.371094 258.136719 C 220.300781 258.480469 220.199219 258.820312 220.0625 259.144531 C 219.925781 259.472656 219.761719 259.78125 219.5625 260.078125 C 219.367188 260.371094 219.144531 260.644531 218.894531 260.890625 C 218.640625 261.140625 218.371094 261.363281 218.074219 261.5625 C 217.78125 261.757812 217.46875 261.921875 217.144531 262.058594 C 216.816406 262.191406 216.476562 262.292969 216.132812 262.363281 C 215.785156 262.429688 215.433594 262.464844 215.078125 262.460938 Z M 215.078125 262.460938 " fill-opacity="1" fill-rule="nonzero"/></g><g clip-path="url(#fa7b4a6b34)"><path fill="#ffffff" d="M 157.574219 238.5 C 145.679688 238.5 138.644531 231.660156 133.46875 226.625 C 129.707031 222.964844 127.257812 220.710938 124.628906 220.710938 C 124.273438 220.710938 123.925781 220.675781 123.578125 220.605469 C 123.234375 220.539062 122.894531 220.4375 122.570312 220.300781 C 122.242188 220.167969 121.933594 220 121.640625 219.804688 C 121.347656 219.609375 121.074219 219.386719 120.824219 219.136719 C 120.574219 218.886719 120.351562 218.613281 120.15625 218.320312 C 119.960938 218.027344 119.792969 217.71875 119.660156 217.390625 C 119.523438 217.0625 119.421875 216.726562 119.351562 216.382812 C 119.285156 216.035156 119.25 215.6875 119.25 215.332031 C 119.25 214.980469 119.285156 214.628906 119.351562 214.28125 C 119.421875 213.9375 119.523438 213.601562 119.660156 213.273438 C 119.792969 212.949219 119.960938 212.636719 120.15625 212.34375 C 120.351562 212.050781 120.574219 211.777344 120.824219 211.53125 C 121.074219 211.28125 121.347656 211.058594 121.640625 210.859375 C 121.933594 210.664062 122.242188 210.5 122.570312 210.363281 C 122.894531 210.226562 123.234375 210.125 123.578125 210.058594 C 123.925781 209.988281 124.273438 209.953125 124.628906 209.953125 C 131.761719 209.953125 136.652344 214.714844 140.96875 218.910156 C 148.097656 225.839844 154.257812 231.816406 171.148438 224.335938 C 171.472656 224.1875 171.808594 224.070312 172.15625 223.988281 C 172.5 223.90625 172.851562 223.859375 173.207031 223.847656 C 173.566406 223.835938 173.917969 223.859375 174.269531 223.914062 C 174.621094 223.972656 174.964844 224.066406 175.296875 224.191406 C 175.628906 224.316406 175.949219 224.476562 176.25 224.664062 C 176.550781 224.851562 176.832031 225.070312 177.089844 225.3125 C 177.347656 225.558594 177.582031 225.828125 177.785156 226.117188 C 177.992188 226.40625 178.167969 226.714844 178.3125 227.042969 C 178.457031 227.367188 178.566406 227.703125 178.644531 228.050781 C 178.722656 228.398438 178.765625 228.75 178.773438 229.105469 C 178.78125 229.460938 178.753906 229.816406 178.691406 230.167969 C 178.628906 230.515625 178.53125 230.859375 178.402344 231.191406 C 178.269531 231.519531 178.109375 231.835938 177.917969 232.136719 C 177.722656 232.433594 177.503906 232.710938 177.253906 232.96875 C 177.007812 233.222656 176.738281 233.453125 176.441406 233.652344 C 176.148438 233.855469 175.839844 234.027344 175.511719 234.167969 C 168.515625 237.277344 162.609375 238.5 157.574219 238.5 Z M 157.574219 238.5 " fill-opacity="1" fill-rule="nonzero"/></g></svg>