<svg xmlns="http://www.w3.org/2000/svg" xmlns:xlink="http://www.w3.org/1999/xlink" width="500" zoomAndPan="magnify" viewBox="0 0 375 374.999991" height="500" preserveAspectRatio="xMidYMid meet" version="1.0"><defs><clipPath id="674ee9ca45"><path d="M 112.5 112.5 L 262.5 112.5 L 262.5 262.5 L 112.5 262.5 Z M 112.5 112.5 " clip-rule="nonzero"/></clipPath></defs><g clip-path="url(#674ee9ca45)"><path fill="#ffffff" d="M 187.5 112.496094 C 228.921875 112.496094 262.503906 146.078125 262.503906 187.5 C 262.503906 228.921875 228.921875 262.503906 187.5 262.503906 C 146.078125 262.503906 112.496094 228.921875 112.496094 187.5 C 112.496094 146.078125 146.078125 112.496094 187.5 112.496094 Z M 156.589844 219.773438 L 167.164062 219.773438 L 167.164062 177.894531 L 156.589844 177.894531 Z M 189.597656 197.707031 C 189.597656 191.097656 192.710938 185.804688 199.878906 185.804688 C 206.957031 185.804688 209.25 191.507812 209.25 197.707031 L 209.25 219.78125 L 219.757812 219.78125 L 219.757812 192.800781 C 219.757812 183.214844 215.113281 176.511719 204.992188 176.511719 C 200.394531 176.511719 195.089844 178.921875 192.84375 183.105469 L 189.597656 189.019531 L 189.597656 177.894531 L 179.59375 177.894531 L 179.59375 219.773438 L 189.597656 219.773438 Z M 193.058594 197.707031 L 193.058594 223.234375 L 176.132812 223.234375 L 176.132812 174.433594 L 193.058594 174.433594 L 193.058594 177.550781 C 196.402344 174.558594 200.503906 173.050781 204.992188 173.050781 C 217.023438 173.050781 223.21875 181.296875 223.21875 192.800781 L 223.21875 223.226562 L 205.789062 223.230469 L 205.789062 197.707031 C 205.789062 193.542969 204.871094 189.265625 199.878906 189.265625 C 194.675781 189.265625 193.058594 193.050781 193.058594 197.707031 Z M 161.8125 168.5 C 165.476562 168.5 168.378906 165.503906 168.378906 161.859375 C 168.378906 158.214844 165.476562 155.226562 161.8125 155.226562 C 158.148438 155.226562 155.242188 158.214844 155.242188 161.859375 C 155.242188 165.503906 158.144531 168.5 161.8125 168.5 Z M 161.8125 171.960938 C 156.25 171.960938 151.78125 167.398438 151.78125 161.859375 C 151.78125 156.320312 156.25 151.765625 161.8125 151.765625 C 167.367188 151.765625 171.839844 156.320312 171.839844 161.859375 C 171.839844 167.398438 167.367188 171.960938 161.8125 171.960938 Z M 153.128906 223.234375 L 153.128906 174.433594 L 170.625 174.433594 L 170.625 223.234375 Z M 187.5 115.960938 C 147.988281 115.960938 115.957031 147.988281 115.957031 187.5 C 115.957031 227.011719 147.988281 259.039062 187.5 259.039062 C 227.011719 259.039062 259.042969 227.011719 259.042969 187.5 C 259.042969 147.988281 227.011719 115.960938 187.5 115.960938 Z M 187.5 115.960938 " fill-opacity="1" fill-rule="nonzero"/></g></svg>