<svg xmlns="http://www.w3.org/2000/svg" xmlns:xlink="http://www.w3.org/1999/xlink" width="500" zoomAndPan="magnify" viewBox="0 0 375 374.999991" height="500" preserveAspectRatio="xMidYMid meet" version="1.0"><defs><clipPath id="5a5844f0fd"><path d="M 112.5 112.5 L 262.5 112.5 L 262.5 262.5 L 112.5 262.5 Z M 112.5 112.5 " clip-rule="nonzero"/></clipPath></defs><path fill="#ffffff" d="M 225.347656 169.113281 C 224.589844 164.25 220.417969 160.773438 215.554688 160.773438 L 159.507812 160.773438 C 154.644531 160.773438 150.472656 164.3125 149.714844 169.113281 C 149.019531 173.597656 148.324219 179.855469 148.324219 187.5 C 148.390625 195.144531 149.019531 201.402344 149.714844 205.886719 C 150.472656 210.6875 154.644531 214.226562 159.507812 214.226562 L 215.492188 214.226562 C 220.355469 214.226562 224.589844 210.6875 225.285156 205.886719 C 225.980469 201.335938 226.675781 195.144531 226.675781 187.5 C 226.675781 179.855469 226.042969 173.597656 225.347656 169.113281 Z M 179.222656 198.179688 L 179.222656 176.886719 L 199.0625 187.5625 Z M 179.222656 198.179688 " fill-opacity="1" fill-rule="nonzero"/><g clip-path="url(#5a5844f0fd)"><path fill="#ffffff" d="M 187.5 262.5 C 146.175781 262.5 112.5 228.886719 112.5 187.5 C 112.5 146.175781 146.175781 112.5 187.5 112.5 C 228.824219 112.5 262.5 146.175781 262.5 187.5 C 262.5 228.886719 228.886719 262.5 187.5 262.5 Z M 187.5 116.605469 C 148.390625 116.605469 116.605469 148.390625 116.605469 187.5 C 116.605469 226.609375 148.390625 258.394531 187.5 258.394531 C 226.609375 258.394531 258.394531 226.609375 258.394531 187.5 C 258.394531 148.390625 226.609375 116.605469 187.5 116.605469 Z M 187.5 116.605469 " fill-opacity="1" fill-rule="nonzero"/></g></svg>